inDegrees=yes
name=ik_Xsens_5
DataType=double
version=3
OpenSimVersion=4.4-2022-07-23-0e9fedc
endheader
time	pelvis_tilt	pelvis_list	pelvis_rotation	pelvis_tx	pelvis_ty	pelvis_tz	hip_flexion_r	hip_adduction_r	hip_rotation_r	knee_angle_r	knee_angle_r_beta	ankle_angle_r	subtalar_angle_r	mtp_angle_r	hip_flexion_l	hip_adduction_l	hip_rotation_l	knee_angle_l	knee_angle_l_beta	ankle_angle_l	subtalar_angle_l	mtp_angle_l	lumbar_extension	lumbar_bending	lumbar_rotation	arm_flex_r	arm_add_r	arm_rot_r	elbow_flex_r	pro_sup_r	wrist_flex_r	wrist_dev_r	arm_flex_l	arm_add_l	arm_rot_l	elbow_flex_l	pro_sup_l	wrist_flex_l	wrist_dev_l
54.56666666666666	0	2.154715601984894e-34	-8.620910738379216e-35	0	0.93	0	-1.821821219475796e-37	-5.38806921148701e-36	0	0	-1.047550519885844e-41	0	0	0	-1.821826436071615e-37	-5.38806921148701e-36	0	0	-1.047550519885844e-41	0	0	0	0	2.154715601984894e-34	-8.620910738379216e-35	-15.95482935196818	20.49672639128046	-24.99053769987482	-40.5040676588109	-16.6633140648204	0	-5.388102552310317e-36	0.0002752841260672565	8.032332984375537e-06	-2.682617024856821e-05	1.826825187357009e-05	8.354903537117007e-06	0	-5.388102552310317e-36
54.58333333333334	0	0	0	0	0.93	0	2.998641019486276e-36	1.82073464599996e-36	0	0	0	1.605769756879511e-43	0	0	2.998641019486276e-36	1.82073464599996e-36	0	0	0	1.605769756879511e-43	0	0	0	0	0	-15.9444246004505	20.51677547563438	-25.03619293086029	-40.48155669013121	-16.67828621794078	0	1.113608961831135e-35	0.0002752841260672565	8.032332984375537e-06	-2.682617024856821e-05	1.826825187357009e-05	8.354903537117007e-06	0	1.113608961831135e-35
54.6	0	0	0	0	0.93	0	1.50292344125715e-38	7.302195430745594e-56	0	0	0	1.589713649024575e-47	0	0	1.50292344125715e-38	7.302195430745594e-56	0	0	0	1.589713649024575e-47	0	0	0	0	0	-15.92053182352832	20.55950221682237	-25.05995602529689	-40.45740687553516	-16.66121413820213	0	1.102473974686826e-39	0.0002752841260672565	8.032332984375537e-06	-2.682617024856821e-05	1.826825187357009e-05	8.354903537117007e-06	0	1.102473974686826e-39
54.61666666666667	0	-5.705212846001795e-34	0	0	0.93	0	4.604548975095571e-38	4.404006508094541e-76	0	0	0	1.573818086352445e-51	0	0	4.604548975095571e-38	4.404006508094541e-76	0	0	0	1.573818086352445e-51	0	0	0	-5.705212846001795e-34	0	-15.89853728827813	20.6052574379831	-25.06396551178358	-40.44252864246141	-16.6293635378343	0	-6.964204784982641e-38	0.0002752841260672565	8.032332984375537e-06	-2.682617024856821e-05	1.826825187357009e-05	8.354903537117007e-06	0	-6.964204784982641e-38
54.63333333333333	6.896728590703373e-34	-8.284156412661278e-35	-3.017318758432726e-34	0	0.93	0	0	-4.889487098501052e-95	0	0	-2.104745476452404e-40	0	0	0	0	-4.889487098501052e-95	0	0	-2.104745476452404e-40	0	0	0	6.896728590703373e-34	-8.284156412661278e-35	-3.017318758432726e-34	-15.87036479548894	20.64292858481007	-25.06433136252986	-40.42078870238595	-16.59942366935497	0	0	0.0002752841260672565	8.032332984375537e-06	-2.682617024856821e-05	1.826825187357009e-05	8.354903537117007e-06	0	0
54.65	9.934756178074932e-36	5.741661253490845e-35	4.526149556782175e-35	0	0.93	0	-1.077613842297402e-35	1.347017302871753e-35	0	0	0	0	0	0	0	0	0	0	0	0	0	0	0	0	0	-15.84132921376256	20.66142687892656	-25.06431546352241	-40.39433323520966	-16.58194847108246	0	0	0.000275284126067309	8.032332984441444e-06	-2.682617024874408e-05	1.826825187351419e-05	8.354903537025784e-06	0	0
54.66666666666666	0	0	0	0	0.93	0	0	0	0	0	0	0	0	0	0	0	0	0	0	0	0	0	0	0	0	-15.8074936199272	20.68293039836355	-25.04945095033309	-40.3686583159887	-16.55167819205888	0	0	0.000275284126067309	8.032332984441444e-06	-2.682617024874408e-05	1.826825187351419e-05	8.354903537025784e-06	0	0
54.68333333333333	5.118665750912659e-34	0	-3.232841526892206e-34	0	0.93	0	1.193638191168603e-37	0	0	0	0	0	0	0	1.193638191168603e-37	0	0	0	0	0	0	0	5.118665750912659e-34	0	-3.232841526892206e-34	-15.76583411965712	20.71704756516601	-25.00416400002008	-40.3480807178744	-16.4912824642744	0	0	0.000275284126067309	8.032332984441444e-06	-2.682617024874408e-05	1.826825187351419e-05	8.354903537025784e-06	0	0
54.7	0	0	0	0	0.93	0	1.660299221171726e-38	0	0	0	0	8.224659322412051e-37	0	0	1.660299221171726e-38	0	0	0	0	8.224659322412051e-37	0	0	0	0	0	-15.71887525777893	20.75575173206475	-24.92363663584654	-40.33523385610653	-16.40346634854828	0	-1.940769526506981e-37	0.000275284126067309	8.032332984441444e-06	-2.682617024874408e-05	1.826825187351419e-05	8.354903537025784e-06	0	-1.940769526506981e-37
54.71666666666667	-3.448364295351686e-34	0	0	0	0.93	0	1.137736735782488e-35	0	0	0	0	8.142420871608932e-41	0	0	1.137736735782488e-35	0	0	0	0	8.142420871608932e-41	0	0	-3.448364295351686e-34	0	0	-15.6665877832894	20.78480468512672	-24.83043865911879	-40.31930910069347	-16.3127389552163	0	-1.92136375260569e-41	0.000275284126067309	8.032332984441444e-06	-2.682617024874408e-05	1.826825187351419e-05	8.354903537025784e-06	0	-1.92136375260569e-41
54.73333333333333	0	0	0	0	0.93	0	1.097089843716627e-36	0	0	0	1.550279523899711e-41	8.06100472389771e-45	0	0	1.097089843716627e-36	0	0	0	1.550279523899711e-41	8.06100472389771e-45	0	0	0	0	0	-15.60974192878284	20.81082574164067	-24.73780936567192	-40.29781572046745	-16.22362815537386	0	2.102240125465197e-37	0.000275284126067309	8.032332984441444e-06	-2.682617024874408e-05	1.826825187351419e-05	8.354903537025784e-06	0	2.102240125465197e-37
54.75	1.185375226527142e-34	-6.735086514358763e-36	-4.310455369189608e-35	0	0.93	0	-1.192276453200663e-37	0	0	0	1.550279523899711e-41	7.980402657061451e-49	0	0	-1.192276453200663e-37	0	0	0	1.550279523899711e-41	7.980402657061451e-49	0	0	1.185375226527142e-34	-6.735086514358763e-36	-4.310455369189608e-35	-15.55920106646019	20.83691501820903	-24.63957482963826	-40.28488932133094	-16.13185343711134	0	2.138218930797166e-37	0.000275284126067309	8.032332984441444e-06	-2.682617024874408e-05	1.826825187351419e-05	8.354903537025784e-06	0	2.138218930797166e-37
54.76666666666667	0	2.155227684594804e-34	0	0	0.93	0	1.180930182978675e-37	0	0	0	-9.292942035154859e-42	7.900606531097355e-53	0	0	1.180930182978675e-37	0	0	0	-9.292942035154859e-42	7.900606531097355e-53	0	0	0	2.155227684594804e-34	0	-15.5146108271324	20.86484854356146	-24.53448532052305	-40.28096177892807	-16.03532192882614	0	2.116838858328087e-41	0.000275284126067309	8.032332984441444e-06	-2.682617024874408e-05	1.826825187351419e-05	8.354903537025784e-06	0	2.116838858328087e-41
54.78333333333333	0	0	0	0	0.93	0	-1.388514961804478e-35	1.621918826761897e-35	0	0	0	0	0	0	-1.388514961804478e-35	1.621918826761897e-35	0	0	0	0	0	0	0	0	0	-15.47680011120049	20.86976013106149	-24.45160616713926	-40.27171284397835	-15.9702090599	0	6.181697790740209e-36	0.000275284126067309	8.032332984441444e-06	-2.682617024874408e-05	1.826825187351419e-05	8.354903537025784e-06	0	6.181697790740209e-36
54.8	0	0	0	0	0.93	0	-1.519827530356236e-35	9.521397211092581e-36	0	0	0	-2.081223408809772e-36	0	0	-1.519827530356236e-35	9.521397211092581e-36	0	0	0	-2.081223408809772e-36	0	0	0	0	0	-15.45193889178853	20.82680168326523	-24.40537110668001	-40.25334386396112	-15.9638981987768	0	3.002788160748881e-36	0.000275284126067309	8.032332984441444e-06	-2.682617024874408e-05	1.826825187351419e-05	8.354903537025784e-06	0	3.002788160748881e-36
54.81666666666666	2.258552478792594e-29	4.942515716304646e-27	-3.292061256788739e-29	-8.085287853099821e-25	0.93	9.421902216470094e-24	-2.393952772133747e-28	9.738393855107382e-21	0	9.954601727511908e-16	1.737405758724145e-17	4.579376936026486e-24	4.412608905083075e-20	3.326446906711983e-25	-1.986002180669788e-22	1.378839239634795e-29	1.176008142722124e-23	9.954059270935902e-16	1.737293956235061e-17	1.523275047033701e-21	1.246456017081599e-26	-1.194738359886023e-23	2.258552478792594e-29	-1.132488077133049e-26	-1.543205379849322e-23	-15.42003008362303	20.78083401793556	-24.35381598460743	-40.22887176930573	-15.95485921236672	-1.427042583809282e-23	-3.02439492290782e-21	0.000275284126067309	8.032332984441438e-06	-2.682617024874406e-05	1.826825187351417e-05	8.354903537025784e-06	-3.204121842624342e-22	3.459816787539059e-21
54.83333333333334	0	0	0	0	0.93	0	3.962291230406465e-36	1.017424178358265e-36	0	0	0	6.92328016063343e-36	0	0	5.46450216585623e-36	-1.27100971691113e-37	0	0	0	4.107797655483662e-36	0	0	0	0	0	-15.38126544406292	20.77973445827721	-24.2535115818523	-40.22346564276273	-15.88189415889229	0	1.405048537269573e-40	0.000275284126067309	8.032332984441438e-06	-2.682617024874406e-05	1.826825187351417e-05	8.354903537025784e-06	0	2.111587230296558e-41
54.85	9.942304884145251e-27	2.062880458574167e-21	3.961540559202327e-27	1.400657874503001e-21	0.93	-1.424341363567511e-20	-1.077958279501929e-34	-4.049776645292125e-26	-1.533237903929041e-25	3.591319015653191e-15	6.288603982624199e-17	3.738247684980321e-19	1.119859123194631e-22	2.163898537993273e-24	1.150212271152284e-15	5.41014649262354e-16	5.510717719050151e-16	3.591319015888524e-15	6.18906185975116e-17	4.735977077167248e-22	8.899958170411092e-25	-1.71037435723417e-20	1.088560926004089e-17	5.662989336025326e-17	-2.54878626105942e-17	-15.33636763634456	20.81147938015076	-24.11639359905428	-40.23096368082307	-15.76124229240371	-3.770962317341641e-23	-2.665028240013352e-23	0.000275284126067309	8.032332984441375e-06	-2.682617024874398e-05	1.826825187351446e-05	8.354903537025475e-06	-3.751336700626426e-19	-2.287906947543353e-18
54.86666666666667	-3.050476107256651e-34	-3.154692078518291e-34	6.896728590663606e-34	1.159770911304425e-55	0.93	0	9.033458048055378e-36	0	0	0	-5.19036604971144e-40	9.958792005750307e-37	2.852420090134998e-56	5.526563924636558e-58	-5.103139131063015e-36	-6.711824466176956e-36	0	0	-2.355360371875248e-40	6.383484428925722e-37	0	2.190658629223678e-54	-2.801795989973245e-34	-3.259781872949641e-34	6.630692673386202e-34	-15.28260239332606	20.83904414654057	-23.9669356824001	-40.23275768570099	-15.63362965259381	0	-1.456343121933363e-37	0.000275284126067309	8.032332984441375e-06	-2.682617024874398e-05	1.826825187351446e-05	8.354903537025475e-06	0	2.640913949340342e-36
54.88333333333333	-9.714541796283314e-13	-7.896921054339679e-13	1.686489587944288e-12	3.953485952969178e-68	0.93	0	4.919768621515746e-37	-6.107414298172726e-29	0	1.561508483500113e-07	2.725346697882069e-09	7.700589301847464e-37	9.723474393435967e-69	1.883923163727781e-70	4.919768621515746e-37	-6.107414298172726e-29	0	1.561508483500113e-07	2.725346697882069e-09	7.700589301847464e-37	0	7.467628334157089e-67	-9.714541796280657e-13	-7.896921054338927e-13	1.686489587944362e-12	-15.21153263307266	20.86475168069822	-23.79025224238741	-40.22572636084932	-15.48613188957441	0	3.373636350521861e-37	0.000275284126067309	8.032332984441375e-06	-2.682617024874398e-05	1.826825187351446e-05	8.354903537025475e-06	0	3.373636350521861e-37
54.9	0	8.620910738379216e-35	0	0	0.93	0	5.315883623463843e-37	0	0	0	0	7.699826942744202e-39	0	4.059546452726607e-104	5.315883623463843e-37	0	0	0	0	7.699826942744202e-39	0	-1.662790227036818e-100	3.879409832270648e-34	-1.293136610756882e-34	0	-15.08981087754965	20.9613168601973	-23.48820671588205	-40.22322181816087	-15.19864613863592	0	4.156360858219823e-37	0.000275284126067309	8.032332984441375e-06	-2.682617024874398e-05	1.826825187351446e-05	8.354903537025475e-06	0	4.156360858219823e-37
54.91666666666666	1.574504136339267e-25	-9.875843875703412e-20	2.188535670243424e-25	2.7285939667068e-20	0.93	6.382539239726875e-19	1.007651091258227e-37	2.334807012140781e-19	2.606672782552601e-34	0	-7.46027878162117e-17	-3.937118572062838e-15	3.092175854114181e-18	-6.411053382232451e-20	1.794637333378997e-25	1.120863068664945e-24	1.888342871233548e-14	0	2.642557057196747e-17	6.086590625921541e-16	1.206751755086716e-22	1.046569848321222e-19	1.587440035973523e-14	2.023208306209511e-15	-6.089158216968881e-16	-14.88221136695515	21.20624444671047	-22.96784934066124	-40.23552297969957	-14.65074907912975	-1.587296719015322e-22	-2.859013919461452e-19	0.0002752841260673088	8.032332984441643e-06	-2.682617024874462e-05	1.826825187351468e-05	8.354903537025482e-06	2.395799275620931e-16	6.765903185729411e-16
